<svg class="icon-hatebu" fill="currentColor" aria-hidden="true" xmlns="http://www.w3.org/2000/svg" viewBox="0 0 24 24">
  <path fill-rule="evenodd" clip-rule="evenodd" d="M20.74,14.52H17.42V4.5h3.32Zm-1.66,1.13A1.93,1.93,0,1,0,21,17.58,1.92,1.92,0,0,0,19.08,15.65Zm-4.31-.27c0,4-3.68,4.1-5.91,4.1H3v-15H9.63C12.58,4.52,14,6,14,8.13c0,1.83-.69,2.87-2.73,3.4C11.31,11.53,14.77,11.35,14.77,15.38Zm-8-4.56H8.87a1.67,1.67,0,0,0,1.44-1.71,1.72,1.72,0,0,0-1.78-1.7H6.78ZM11,15.28a1.8,1.8,0,0,0-1.61-1.84H6.78v3.68H9.37A1.8,1.8,0,0,0,11,15.28Z" />
</svg>