<svg class="icon-pocket ignore-dark" fill="currentColor" aria-hidden="true"
  xmlns="http://www.w3.org/2000/svg" viewBox="0 0 24 24">
  <path fill-rule="evenodd" clip-rule="evenodd"
    d="M17.68,11,13,15.47a1.38,1.38,0,0,1-1,.38,1.4,1.4,0,0,1-.95-.38L6.37,11A1.37,1.37,0,0,1,8.26,9L12,12.57,15.79,9a1.37,1.37,0,0,1,1.9,2Zm4.23-6.29a1.8,1.8,0,0,0-1.7-1.19H3.82a1.82,1.82,0,0,0-1.7,1.17A1.73,1.73,0,0,0,2,5.28v6l.07,1.2A9.76,9.76,0,0,0,6,19.3l.12.09,0,0A9.75,9.75,0,0,0,10,21.13a10,10,0,0,0,3.83,0l.22-.05.06,0A10,10,0,0,0,17.9,19.4l0,0,.11-.09a9.81,9.81,0,0,0,3.91-6.79L22,11.3v-6a1.91,1.91,0,0,0-.1-.62Z" />
</svg>