<svg class="icon-twitter ignore-dark" fill="currentColor" aria-hidden="true"
  xmlns="http://www.w3.org/2000/svg"
  viewBox="0 0 24 24">
  <path
    d="M22,6.73a8.09,8.09,0,0,1-2.36.65,4.16,4.16,0,0,0,1.81-2.27,8.07,8.07,0,0,1-2.61,1,4.1,4.1,0,0,0-7.09,2.81,4.23,4.23,0,0,0,.1.94A11.67,11.67,0,0,1,3.4,5.56,4.08,4.08,0,0,0,4.67,11a4,4,0,0,1-1.86-.51v.05a4.11,4.11,0,0,0,3.29,4A4.26,4.26,0,0,1,5,14.74a4.79,4.79,0,0,1-.77-.07,4.12,4.12,0,0,0,3.83,2.85A8.24,8.24,0,0,1,3,19.27c-.33,0-.66,0-1-.05A11.68,11.68,0,0,0,20,9.39c0-.18,0-.36,0-.54A8.11,8.11,0,0,0,22,6.73Z" />
</svg>